HIERARCHY
ROOT root
{
	OFFSET 0.000000 0.000000 0.000000
	CHANNELS 6 Xposition Yposition Zposition Zrotation Yrotation Xrotation
	JOINT lhip
	{
		OFFSET 0.058581 -0.082280 -0.017664
		CHANNELS 3 Zrotation Yrotation Xrotation
		JOINT lknee
		{
			OFFSET 0.043451 -0.386469 0.008037
			CHANNELS 3 Zrotation Yrotation Xrotation
			JOINT lankle
			{
				OFFSET -0.014790 -0.426874 -0.037428
				CHANNELS 3 Zrotation Yrotation Xrotation
				JOINT ltoe
				{
					OFFSET 0.041054 -0.060286 0.122042
					CHANNELS 3 Zrotation Yrotation Xrotation
					End Site
					{
						OFFSET 0.000000 0.000000 0.000000
					}
				}
			}
		}
	}
	JOINT rhip
	{
		OFFSET -0.060310 -0.090513 -0.013543
		CHANNELS 3 Zrotation Yrotation Xrotation
		JOINT rknee
		{
			OFFSET -0.043257 -0.383688 -0.004843
			CHANNELS 3 Zrotation Yrotation Xrotation
			JOINT rankle
			{
				OFFSET 0.019056 -0.420046 -0.034562
				CHANNELS 3 Zrotation Yrotation Xrotation
				JOINT rtoe
				{
					OFFSET -0.034840 -0.062106 0.130323
					CHANNELS 3 Zrotation Yrotation Xrotation
					End Site
					{
						OFFSET 0.000000 0.000000 0.000000
					}
				}
			}
		}
	}
	JOINT lowerback
	{
		OFFSET 0.004439 0.124404 -0.038385
		CHANNELS 3 Zrotation Yrotation Xrotation
		JOINT upperback
		{
			OFFSET 0.004488 0.137956 0.026820
			CHANNELS 3 Zrotation Yrotation Xrotation
			JOINT chest
			{
				OFFSET -0.002265 0.056032 0.002855
				CHANNELS 3 Zrotation Yrotation Xrotation
				JOINT lowerneck
				{
					OFFSET -0.013390 0.211636 -0.033468
					CHANNELS 3 Zrotation Yrotation Xrotation
					JOINT upperneck
					{
						OFFSET 0.010113 0.088937 0.050410
						CHANNELS 3 Zrotation Yrotation Xrotation
						End Site
						{
							OFFSET 0.000000 0.000000 0.000000
						}
					}
				}
				JOINT lclavicle
				{
					OFFSET 0.071702 0.114000 -0.018898
					CHANNELS 3 Zrotation Yrotation Xrotation
					JOINT lshoulder
					{
						OFFSET 0.122921 0.045205 -0.019046
						CHANNELS 3 Zrotation Yrotation Xrotation
						JOINT lelbow
						{
							OFFSET 0.255332 -0.015649 -0.022946
							CHANNELS 3 Zrotation Yrotation Xrotation
							JOINT lwrist
							{
								OFFSET 0.265709 0.012698 -0.007375
								CHANNELS 3 Zrotation Yrotation Xrotation
								End Site
								{
									OFFSET 0.000000 0.000000 0.000000
								}
							}
						}
					}
				}
				JOINT rclavicle
				{
					OFFSET -0.082954 0.112472 -0.023707
					CHANNELS 3 Zrotation Yrotation Xrotation
					JOINT rshoulder
					{
						OFFSET -0.113228 0.046853 -0.008472
						CHANNELS 3 Zrotation Yrotation Xrotation
						JOINT relbow
						{
							OFFSET -0.260127 -0.014369 -0.031269
							CHANNELS 3 Zrotation Yrotation Xrotation
							JOINT rwrist
							{
								OFFSET -0.269108 0.006794 -0.006027
								CHANNELS 3 Zrotation Yrotation Xrotation
								End Site
								{
									OFFSET 0.000000 0.000000 0.000000
								}
							}
						}
					}
				}
			}
		}
	}
}
MOTION
Frames: 13
Frame Time: 0.033333
0.326989 -1.023620 0.969099 -69.446710 2.145907 93.053457 18.692097 4.373740 -15.507361 -4.812049 -11.243894 13.843242 -1.245758 7.890511 -18.497283 0.000000 -0.000000 0.000000 1.747303 -8.691573 -7.438397 11.346992 -6.458118 1.338956 0.893682 -9.301741 -15.190897 0.000000 -0.000000 0.000000 -1.497086 2.927140 18.884081 2.924125 -2.176249 -15.038863 3.244317 -0.779461 8.743379 8.700847 3.502774 -2.331992 8.639148 -12.810232 -2.301635 -7.585520 3.865398 -16.833318 -4.459420 -23.951870 -25.698334 140.940285 -49.346769 -107.892650 36.541660 -27.809140 21.094990 9.488887 -0.552521 -14.785926 9.372192 9.430815 -31.273279 -145.817990 55.714284 -125.462613 -31.586521 24.270154 15.603774 
0.327401 -1.023072 0.969070 -69.379935 2.091356 93.094735 18.670763 4.435517 -15.549735 -4.744802 -11.149204 13.701458 -1.233577 7.716659 -18.402025 0.000000 -0.000000 0.000000 1.710390 -8.743407 -7.537729 11.347872 -6.635676 1.384465 0.976590 -9.145064 -15.255969 0.000000 -0.000000 0.000000 -1.387223 2.913028 18.971117 2.782639 -2.143306 -14.986077 3.129025 -0.678449 8.705366 8.286199 3.803437 -1.739475 8.551612 -12.944913 -2.396687 -7.412569 3.936727 -16.944536 -4.706148 -24.080461 -25.535951 140.962465 -49.415004 -107.825376 36.336748 -27.851065 21.370312 9.471838 -0.449511 -14.690740 9.334165 9.424643 -31.292027 -145.785102 55.713837 -125.514931 -31.286440 24.449557 15.634741 
0.327563 -1.022800 0.969141 -69.323971 2.005752 93.058014 18.592969 4.436669 -15.477301 -4.721277 -11.166235 13.544289 -1.269057 7.564525 -18.314009 0.000000 -0.000000 0.000000 1.648440 -8.739283 -7.534825 11.293248 -6.707490 1.430858 1.008046 -9.144241 -15.319316 0.000000 -0.000000 0.000000 -1.267939 2.891860 19.052429 2.689548 -2.115984 -14.960271 3.066918 -0.594089 8.678960 7.985114 3.844356 -1.372202 8.373809 -12.977571 -2.280978 -7.383228 3.902624 -16.984790 -4.766996 -24.059931 -25.470397 141.055855 -49.397278 -107.837663 36.160857 -27.810605 21.512598 9.409296 -0.313817 -14.665718 9.236061 9.328586 -31.270912 -145.770745 55.708422 -125.521695 -30.999969 24.501050 15.618420 
0.327462 -1.022782 0.969195 -69.262025 1.912134 92.993928 18.476786 4.370386 -15.383467 -4.704238 -11.245037 13.444023 -1.302109 7.538862 -18.267367 0.000000 -0.000000 0.000000 1.575284 -8.652853 -7.458840 11.216652 -6.708412 1.420072 0.936491 -9.277056 -15.387747 0.000000 -0.000000 0.000000 -1.120596 2.878494 19.050960 2.655390 -2.094063 -14.908595 3.041269 -0.543190 8.633820 7.787290 3.638358 -1.261385 8.099901 -12.891063 -1.900134 -7.454222 3.823049 -16.950585 -4.715373 -23.987054 -25.442470 141.123096 -49.352254 -107.821120 36.129517 -27.739391 21.422928 9.332620 -0.244847 -14.672373 9.053915 9.222344 -31.183838 -145.670166 55.690190 -125.396765 -30.995821 24.428660 15.614112 
0.327022 -1.022919 0.969170 -69.219267 1.825278 92.932284 18.354446 4.320755 -15.300548 -4.692781 -11.336118 13.436853 -1.300652 7.600899 -18.266548 0.000000 -0.000000 0.000000 1.478883 -8.624187 -7.353032 11.185384 -6.671638 1.411024 0.823493 -9.364714 -15.484883 0.000000 -0.000000 0.000000 -0.955264 2.886657 18.914107 2.651596 -2.084363 -14.788238 2.998076 -0.518543 8.587323 7.714796 3.452497 -1.281018 7.841068 -12.805506 -1.398200 -7.520945 3.811713 -16.946625 -4.621898 -24.022107 -25.429661 141.188170 -49.340822 -107.900410 36.193771 -27.703365 21.253454 9.337319 -0.280549 -14.658883 8.844945 9.197447 -31.124635 -145.418312 55.663450 -125.193453 -31.204991 24.377703 15.686623 
0.326253 -1.023130 0.969136 -69.182069 1.737013 92.868961 18.254103 4.307753 -15.205119 -4.732495 -11.413501 13.469989 -1.333533 7.631011 -18.287504 0.000000 -0.000000 0.000000 1.340867 -8.756894 -7.210578 11.236685 -6.610020 1.420995 0.751619 -9.312425 -15.557593 0.000000 -0.000000 0.000000 -0.816745 2.902807 18.670256 2.672176 -2.112396 -14.628121 2.939474 -0.509220 8.566236 7.811762 3.322963 -1.419071 7.655182 -12.790599 -0.932187 -7.524520 3.877697 -16.948621 -4.580711 -24.184097 -25.462375 141.343153 -49.322839 -108.148971 36.172768 -27.674395 21.192963 9.396542 -0.372111 -14.615069 8.730825 9.255404 -31.170986 -145.121271 55.636255 -125.003323 -31.307133 24.361651 15.818445 
0.325219 -1.023360 0.969133 -69.124034 1.624261 92.797949 18.166261 4.257581 -15.067287 -4.793567 -11.456850 13.461740 -1.289800 7.681349 -18.316222 0.000000 -0.000000 0.000000 1.145387 -8.933311 -7.009544 11.352999 -6.525601 1.391543 0.756444 -9.253993 -15.546889 0.000000 -0.000000 0.000000 -0.751382 2.911035 18.389500 2.716338 -2.184994 -14.488195 2.894339 -0.492401 8.550919 8.016897 3.124076 -1.618290 7.512808 -12.826318 -0.526325 -7.507683 3.915057 -16.912272 -4.547326 -24.371460 -25.531137 141.538530 -49.320557 -108.372553 36.050318 -27.598170 21.227234 9.406809 -0.466317 -14.654871 8.823701 9.329842 -31.210284 -144.973037 55.633994 -124.895727 -31.253055 24.296086 15.914092 
0.323926 -1.023548 0.969026 -69.078780 1.476249 92.726458 18.053957 4.158323 -14.870621 -4.820101 -11.515932 13.382341 -1.197157 7.782555 -18.358195 0.000000 -0.000000 0.000000 0.939961 -9.000655 -6.837304 11.414885 -6.434434 1.414197 0.797260 -9.322036 -15.547989 0.000000 -0.000000 0.000000 -0.781668 2.914257 18.099518 2.766114 -2.263891 -14.353182 2.870509 -0.470430 8.465346 8.162631 2.943599 -1.577965 7.585043 -12.870910 -0.337401 -7.674400 3.794254 -16.825638 -4.162337 -24.448523 -25.664147 141.601769 -49.411936 -108.427343 35.966065 -27.490384 21.322395 9.396594 -0.462994 -14.775662 9.026291 9.330262 -31.161687 -145.012735 55.659603 -124.963021 -31.299423 24.261661 15.978108 
0.322309 -1.023674 0.968770 -69.070268 1.352399 92.636989 17.943148 4.132119 -14.626981 -4.806327 -11.669453 13.308875 -1.153312 7.875168 -18.445509 0.000000 -0.000000 0.000000 0.849435 -8.973251 -6.698866 11.333084 -6.309300 1.523840 0.798870 -9.491331 -15.649959 0.000000 -0.000000 0.000000 -0.847066 2.879651 17.848772 2.826253 -2.321982 -14.206822 2.871692 -0.470780 8.313636 8.223113 2.886856 -1.432322 7.859717 -12.834134 -0.310926 -8.026760 3.564688 -16.735295 -3.429486 -24.291575 -25.916995 141.523582 -49.555042 -108.476607 35.894175 -27.393968 21.536419 9.476993 -0.343278 -14.779240 9.048322 9.315112 -31.218231 -145.152006 55.694415 -125.262067 -31.349670 24.355334 16.162046 
0.320499 -1.023754 0.968591 -69.089696 1.281938 92.511045 17.887282 4.137627 -14.336463 -4.771824 -11.831632 13.266888 -1.104473 7.937441 -18.575755 0.000000 -0.000000 0.000000 0.862412 -8.916403 -6.538724 11.201092 -6.157573 1.681731 0.772579 -9.698690 -15.816919 0.000000 -0.000000 0.000000 -0.907497 2.809473 17.700073 2.886633 -2.347290 -14.133193 2.879706 -0.474010 8.221838 8.383754 2.905891 -1.668039 8.063776 -12.800400 -0.170984 -8.235997 3.467608 -16.730356 -2.870257 -24.137919 -26.147023 141.392802 -49.638632 -108.521004 35.715929 -27.297267 21.783813 9.653341 -0.300635 -14.740167 8.901729 9.387661 -31.320691 -145.263379 55.702984 -125.530240 -31.196419 24.409319 16.350664 
0.318608 -1.023791 0.968502 -69.117284 1.240881 92.356644 17.868570 4.074419 -14.001766 -4.714378 -11.963278 13.220896 -1.061839 8.011108 -18.717756 0.000000 -0.000000 0.000000 0.918457 -8.811086 -6.349712 11.066130 -6.028354 1.846464 0.769462 -9.924874 -16.011039 0.000000 -0.000000 0.000000 -0.970994 2.744148 17.634159 2.930268 -2.332048 -14.152899 2.884801 -0.506635 8.225467 8.649805 2.902170 -2.229134 8.085073 -12.796375 0.143126 -8.209184 3.500244 -16.772965 -2.662908 -24.070097 -26.258724 141.259836 -49.637885 -108.543565 35.524682 -27.270766 21.880625 9.888170 -0.355583 -14.773646 8.718021 9.538026 -31.362815 -145.404197 55.684178 -125.689291 -30.962143 24.445142 16.470519 
0.316789 -1.023637 0.968405 -69.141082 1.219439 92.202648 17.885553 3.950342 -13.672679 -4.671716 -12.070079 13.174876 -1.101156 8.119480 -18.822344 0.000000 -0.000000 0.000000 0.967406 -8.744779 -6.163610 10.991411 -5.988129 2.023381 0.793990 -10.010628 -16.221617 0.000000 -0.000000 0.000000 -1.024774 2.749533 17.543915 2.950496 -2.317315 -14.155728 2.891296 -0.598150 8.254728 8.894602 2.879516 -2.633952 8.076474 -12.813537 0.384231 -8.108670 3.491365 -16.756399 -2.597503 -23.986721 -26.331003 141.215837 -49.567071 -108.656577 35.368119 -27.333918 21.877703 10.071814 -0.346328 -14.865966 8.653221 9.607220 -31.380320 -145.640808 55.621566 -125.931166 -30.722374 24.576154 16.668108 
0.315057 -1.023282 0.968156 -69.145401 1.228185 92.071476 17.952776 3.866133 -13.452864 -4.687494 -12.139084 13.243372 -1.167387 8.241924 -18.912178 0.000000 -0.000000 0.000000 1.018177 -8.748572 -6.014137 10.976796 -6.009039 2.228404 0.829758 -9.953114 -16.421029 0.000000 -0.000000 0.000000 -1.075199 2.781893 17.422490 2.986648 -2.327027 -14.106704 2.921822 -0.696250 8.261658 8.989277 2.804193 -2.787936 8.106252 -12.812037 0.485928 -8.059003 3.384503 -16.655807 -2.535877 -23.809892 -26.439076 141.249578 -49.476256 -108.827417 35.265950 -27.377165 21.875822 10.135051 -0.243158 -14.942258 8.671089 9.547864 -31.465237 -145.919589 55.544353 -126.261331 -30.517714 24.726050 16.938482 
